<svg width="47" height="47" viewBox="0 0 47 47" fill="none" xmlns="http://www.w3.org/2000/svg">
<path d="M23.5 23.5C22.2635 23.5 21.027 23.2806 20.0631 22.8418L6.47719 16.6464C5.85572 16.3637 4.40625 15.5366 4.40625 13.9752C4.40625 12.4137 5.85572 11.5884 6.47902 11.302L20.1825 5.05342C22.0707 4.19053 24.9201 4.19053 26.8093 5.05342L40.521 11.302C41.1443 11.5857 42.5938 12.4128 42.5938 13.9752C42.5938 15.5375 41.1443 16.3619 40.521 16.6474L26.935 22.8418C25.973 23.2806 24.7365 23.5 23.5 23.5Z" fill="black"/>
<path d="M40.5155 20.8204L39.1303 20.1953L35.5713 21.8238L26.9424 25.7711C25.9785 26.2117 24.7393 26.4311 23.5055 26.4311C22.2718 26.4311 21.0334 26.2117 20.0705 25.7711L11.4351 21.8238L7.87525 20.1953L6.47811 20.8232C5.85572 21.1069 4.40625 21.9395 4.40625 23.5C4.40625 25.0605 5.85572 25.8941 6.47719 26.1777L20.0631 32.3859C21.0215 32.8266 22.2598 33.0469 23.5 33.0469C24.7402 33.0469 25.973 32.8266 26.9369 32.3869L40.5109 26.1805C41.136 25.8968 42.5938 25.0688 42.5938 23.5C42.5938 21.9312 41.1461 21.1069 40.5155 20.8204Z" fill="black"/>
<path d="M40.5155 30.3664L39.1303 29.7422L35.5713 31.3697L26.9424 35.3124C25.9785 35.7512 24.7393 35.9715 23.5055 35.9715C22.2718 35.9715 21.0334 35.7521 20.0705 35.3124L11.4351 31.3652L7.87525 29.7422L6.47811 30.3701C5.85572 30.6537 4.40625 31.4863 4.40625 33.0469C4.40625 34.6074 5.85572 35.44 6.47719 35.7228L20.0631 41.9273C21.0215 42.3661 22.2644 42.5938 23.5 42.5938C24.7356 42.5938 25.9675 42.3661 26.9314 41.9264L40.51 35.7237C41.136 35.4409 42.5938 34.6129 42.5938 33.0469C42.5938 31.4808 41.1461 30.6537 40.5155 30.3664Z" fill="black"/>
</svg>
