<svg width="43" height="37" viewBox="0 0 43 37" fill="none" xmlns="http://www.w3.org/2000/svg">
<path d="M37.2692 1H5.73077C3.11804 1 1 2.95875 1 5.375V31.625C1 34.0412 3.11804 36 5.73077 36H37.2692C39.882 36 42 34.0412 42 31.625V5.375C42 2.95875 39.882 1 37.2692 1Z" stroke="black" stroke-width="2" stroke-linejoin="round"/>
<path d="M35.4775 1H7.52255C3.92618 1 1 3.71622 1 7.05405V11.0901H2.57692C2.57692 9.64865 4.15385 8.20721 5.73077 8.20721H37.2692C38.8462 8.20721 40.4231 9.64865 40.4231 11.0901H42V7.05405C42 3.71622 39.0738 1 35.4775 1Z" fill="black"/>
</svg>
