<svg width="45" height="47" viewBox="0 0 45 47" fill="none" xmlns="http://www.w3.org/2000/svg">
<path d="M31.6979 1H13.4688C10.4484 1 8 3.01472 8 5.5V41.5C8 43.9853 10.4484 46 13.4688 46H31.6979C34.7182 46 37.1667 43.9853 37.1667 41.5V5.5C37.1667 3.01472 34.7182 1 31.6979 1Z" stroke="black" stroke-linecap="round" stroke-linejoin="round"/>
<path d="M13.8333 1H16.5833C16.8264 1 17.0595 1.10536 17.2314 1.29289C17.4033 1.48043 17.4999 1.73478 17.4999 2C17.4999 2.53043 17.6931 3.03914 18.0369 3.41421C18.3807 3.78929 18.847 4 19.3333 4H26.6666C27.1528 4 27.6191 3.78929 27.9629 3.41421C28.3068 3.03914 28.4999 2.53043 28.4999 2C28.4999 1.73478 28.5965 1.48043 28.7684 1.29289C28.9403 1.10536 29.1735 1 29.4166 1H32.1666" stroke="black" stroke-linecap="round" stroke-linejoin="round"/>
</svg>
