<svg width="51" height="51" viewBox="0 0 51 51" fill="none" xmlns="http://www.w3.org/2000/svg">
<path d="M46.0006 5.35998C45.9837 5.27823 45.9437 5.20302 45.8855 5.1432C45.8273 5.08338 45.7532 5.04144 45.6719 5.0223C40.2551 3.6975 27.7422 8.41799 20.9558 15.1994C19.7463 16.3989 18.6435 17.7014 17.6597 19.0921C15.5679 18.9029 13.4761 19.0622 11.6951 19.8392C6.66585 22.0505 5.20259 27.8259 4.79419 30.3052C4.77206 30.441 4.78152 30.5801 4.82181 30.7117C4.86211 30.8434 4.93217 30.9639 5.02656 31.0641C5.12096 31.1643 5.23715 31.2414 5.36614 31.2894C5.49512 31.3374 5.63344 31.3551 5.77036 31.3411L13.8457 30.4546C13.8513 31.0637 13.8879 31.6721 13.9553 32.2774C13.9974 32.6958 14.1841 33.0865 14.4832 33.3821L17.6099 36.5088C17.9058 36.8081 18.2968 36.9948 18.7156 37.0368C19.3173 37.1039 19.9221 37.1404 20.5275 37.1463L19.642 45.2147C19.6281 45.3514 19.6459 45.4895 19.694 45.6183C19.7421 45.7471 19.8191 45.8631 19.9191 45.9573C20.0191 46.0516 20.1395 46.1216 20.2709 46.1619C20.4023 46.2022 20.5412 46.2118 20.6769 46.1899C23.1572 45.7914 28.9445 44.3282 31.1429 39.2999C31.9198 37.5169 32.0792 35.436 31.8999 33.3542C33.2947 32.3714 34.6009 31.2685 35.8036 30.0581C42.6149 23.2847 47.3055 11.0467 46.0006 5.35998ZM29.7493 21.2835C29.1544 20.6887 28.7492 19.9309 28.585 19.1058C28.4208 18.2807 28.505 17.4254 28.8269 16.6482C29.1488 15.8709 29.6939 15.2066 30.3934 14.7392C31.0929 14.2718 31.9153 14.0223 32.7565 14.0223C33.5978 14.0223 34.4202 14.2718 35.1197 14.7392C35.8191 15.2066 36.3643 15.8709 36.6862 16.6482C37.0081 17.4254 37.0923 18.2807 36.9281 19.1058C36.7639 19.9309 36.3587 20.6887 35.7637 21.2835C35.3691 21.679 34.9004 21.9927 34.3844 22.2068C33.8684 22.4208 33.3152 22.531 32.7565 22.531C32.1979 22.531 31.6447 22.4208 31.1287 22.2068C30.6127 21.9927 30.1439 21.679 29.7493 21.2835Z" stroke="black" stroke-width="3" stroke-linecap="round" stroke-linejoin="round"/>
<path d="M10.9212 35.0625C9.92818 35.1844 9.00438 35.6346 8.29646 36.3415C6.54135 38.1026 6.375 44.625 6.375 44.625C6.375 44.625 12.9014 44.4587 14.6575 42.7015C15.3673 41.9948 15.8182 41.0694 15.9375 40.0748" stroke="black" stroke-width="3" stroke-linecap="round" stroke-linejoin="round"/>
</svg>
