<svg width="51" height="51" viewBox="0 0 51 51" fill="none" xmlns="http://www.w3.org/2000/svg">
<path d="M36.6562 12.75H44.625M6.375 12.75H30.2812M36.6562 38.25H44.625M6.375 38.25H30.2812M20.7188 25.5H44.625M6.375 25.5H14.3438" stroke="black" stroke-width="2" stroke-linecap="round" stroke-linejoin="round"/>
<path d="M33.4688 15.9375C35.2292 15.9375 36.6562 14.5104 36.6562 12.75C36.6562 10.9896 35.2292 9.5625 33.4688 9.5625C31.7083 9.5625 30.2812 10.9896 30.2812 12.75C30.2812 14.5104 31.7083 15.9375 33.4688 15.9375Z" stroke="black" stroke-width="2" stroke-linecap="round" stroke-linejoin="round"/>
<path d="M17.5312 28.6875C19.2917 28.6875 20.7188 27.2604 20.7188 25.5C20.7188 23.7396 19.2917 22.3125 17.5312 22.3125C15.7708 22.3125 14.3438 23.7396 14.3438 25.5C14.3438 27.2604 15.7708 28.6875 17.5312 28.6875Z" stroke="black" stroke-width="2" stroke-linecap="round" stroke-linejoin="round"/>
<path d="M33.4688 41.4375C35.2292 41.4375 36.6562 40.0104 36.6562 38.25C36.6562 36.4896 35.2292 35.0625 33.4688 35.0625C31.7083 35.0625 30.2812 36.4896 30.2812 38.25C30.2812 40.0104 31.7083 41.4375 33.4688 41.4375Z" stroke="black" stroke-width="2" stroke-linecap="round" stroke-linejoin="round"/>
</svg>
